<svg width="120" height="120" viewBox="0 0 120 120" fill="none" xmlns="http://www.w3.org/2000/svg">
<path d="M18.8881 59.712C14.148 51.4465 11.8592 44.6974 10.4792 37.8561C8.4381 27.7379 13.109 17.8541 20.8469 11.5474C24.1172 8.88191 27.8661 9.79261 29.8 13.262L34.1659 21.0946C37.6264 27.3029 39.3567 30.407 39.0135 33.698C38.6703 36.989 36.3368 39.6693 31.6698 45.0301L18.8881 59.712ZM18.8881 59.712C28.4825 76.4415 43.5392 91.5065 60.288 101.112M60.288 101.112C68.5535 105.852 75.3025 108.141 82.144 109.521C92.262 111.562 102.146 106.891 108.452 99.153C111.118 95.883 110.207 92.134 106.738 90.2L98.9055 85.834C92.697 82.3735 89.593 80.6435 86.302 80.9865C83.011 81.3295 80.3305 83.663 74.97 88.33L60.288 101.112Z" stroke="#00494A" stroke-width="7" stroke-linejoin="round"/>
<path d="M60 35H64.2855C66.306 35 67.316 35 67.944 35.6102C68.5715 36.2204 68.5715 37.2025 68.5715 39.1667C68.5715 43.0951 68.5715 45.0592 67.316 46.2796C66.3615 47.2078 64.9645 47.43 62.5725 47.4832C61.346 47.5105 60.7325 47.5242 60.366 47.8885C60 48.2528 60 48.8352 60 50V55.8335C60 57.7975 60 58.7795 60.6275 59.39C61.2555 60 62.2655 60 64.2855 60H68.5715M90 35V47.5M90 47.5H82.7145C81.098 47.5 80.29 47.5 79.788 47.0119C79.2855 46.5237 79.2855 45.738 79.2855 44.1667V35M90 47.5V60" stroke="#00494A" stroke-width="7" stroke-linecap="round" stroke-linejoin="round"/>
<path d="M50 21.5259C50.445 21.0259 50.9075 20.5359 51.387 20.0565C64.7955 6.64785 86.535 6.64785 99.9435 20.0565C113.352 33.465 113.352 55.2045 99.9435 68.613C99.464 69.0925 98.974 69.555 98.474 70" stroke="#00494A" stroke-width="7" stroke-linecap="round"/>
</svg>
