<svg width="120" height="120" viewBox="0 0 120 120" fill="none" xmlns="http://www.w3.org/2000/svg">
<path d="M97.5 87.5C97.5 94.4035 91.9035 100 85 100C78.0965 100 72.5 94.4035 72.5 87.5C72.5 80.5965 78.0965 75 85 75C91.9035 75 97.5 80.5965 97.5 87.5Z" stroke="#00494A" stroke-width="7"/>
<path d="M47.5 87.5C47.5 94.4035 41.9036 100 35 100C28.0964 100 22.5 94.4035 22.5 87.5C22.5 80.5965 28.0964 75 35 75C41.9036 75 47.5 80.5965 47.5 87.5Z" stroke="#00494A" stroke-width="7"/>
<path d="M72.5 87.5H47.5M97.5 87.5H101.316C102.416 87.5 102.965 87.5 103.427 87.4425C106.834 87.018 109.518 84.3345 109.943 80.9275C110 80.4655 110 79.9155 110 78.816V65C110 47.0508 95.4495 32.5 77.5 32.5M75 77.5V35C75 27.929 75 24.3934 72.8035 22.1967C70.6065 20 67.071 20 60 20H25C17.929 20 14.3934 20 12.1967 22.1967C10 24.3934 10 27.929 10 35V75C10 79.673 10 82.0095 11.0048 83.75C11.663 84.89 12.6099 85.837 13.75 86.495C15.4904 87.5 17.8269 87.5 22.5 87.5" stroke="#00494A" stroke-width="7" stroke-linecap="round" stroke-linejoin="round"/>
<path d="M32.5 35V54.999M52.5 35V54.999" stroke="#00494A" stroke-width="7" stroke-linecap="round" stroke-linejoin="round"/>
</svg>
